<svg width="45" height="45" viewBox="0 0 45 45" fill="none" xmlns="http://www.w3.org/2000/svg">
<path d="M37.5 7.5H7.5C5.42893 7.5 3.75 9.17893 3.75 11.25V33.75C3.75 35.8211 5.42893 37.5 7.5 37.5H37.5C39.5711 37.5 41.25 35.8211 41.25 33.75V11.25C41.25 9.17893 39.5711 7.5 37.5 7.5ZM37.5 11.25V16.875H7.5V11.25H37.5ZM7.5 33.75V22.5H37.5V33.75H7.5ZM17.8125 26.25H12.1875C11.6697 26.25 11.25 26.6697 11.25 27.1875V29.0625C11.25 29.5803 11.6697 30 12.1875 30H17.8125C18.3303 30 18.75 29.5803 18.75 29.0625V27.1875C18.75 26.6697 18.3303 26.25 17.8125 26.25Z" fill="white"/>
</svg>
