<svg width="62" height="62" viewBox="0 0 62 62" fill="none" xmlns="http://www.w3.org/2000/svg">
<path d="M6.20898 18.2408L30.9997 30.6346L55.7904 18.2408C55.6986 16.6612 55.0064 15.1764 53.8554 14.0906C52.7045 13.0048 51.182 12.4001 49.5997 12.4004H12.3997C10.8174 12.4001 9.29487 13.0048 8.14394 14.0906C6.993 15.1764 6.30076 16.6612 6.20898 18.2408V18.2408Z" fill="black"/>
<path d="M55.8002 25.166L31.0002 37.566L6.2002 25.166V43.4002C6.2002 45.0446 6.85341 46.6216 8.01613 47.7843C9.17886 48.947 10.7559 49.6002 12.4002 49.6002H49.6002C51.2445 49.6002 52.8215 48.947 53.9843 47.7843C55.147 46.6216 55.8002 45.0446 55.8002 43.4002V25.166Z" fill="black"/>
</svg>
